<?xml version="1.0" standalone="no"?>
<!DOCTYPE svg PUBLIC "-//W3C//DTD SVG 20010904//EN"
 "http://www.w3.org/TR/2001/REC-SVG-20010904/DTD/svg10.dtd">
<svg version="1.0" xmlns="http://www.w3.org/2000/svg"
 width="492.000000pt" height="900.000000pt" viewBox="0 0 492.000000 900.000000"
 preserveAspectRatio="xMidYMid meet">

<g transform="translate(0.000000,900.000000) scale(0.100000,-0.100000)"
fill="#000000" stroke="none">
<path d="M2528 8026 c-71 -25 -107 -47 -152 -94 -46 -49 -23 -53 61 -11 43 22
88 39 100 39 12 0 34 4 48 10 29 11 105 -3 142 -27 27 -18 62 -14 77 9 24 39
-80 99 -168 97 -23 0 -71 -11 -108 -23z"/>
<path d="M2321 7518 c-24 -12 -45 -32 -55 -53 -20 -42 -20 -56 1 -100 18 -38
45 -45 86 -22 82 46 123 131 80 169 -29 25 -70 27 -112 6z"/>
<path d="M3789 7454 c-10 -13 -6 -27 25 -85 48 -88 66 -155 66 -241 0 -53 3
-68 15 -68 22 0 38 76 33 160 -8 133 -97 284 -139 234z"/>
<path d="M4816 7361 c-19 -27 -99 -87 -146 -108 -44 -20 -119 -36 -203 -43
l-82 -7 112 -2 c61 0 114 3 117 8 3 4 19 11 36 15 30 5 92 44 136 82 24 22 58
73 53 79 -3 2 -13 -8 -23 -24z"/>
<path d="M2584 7062 c-30 -4 -69 -50 -82 -99 -14 -47 -2 -127 25 -178 24 -45
89 -101 132 -114 106 -31 235 10 276 90 38 72 -55 209 -182 269 -48 22 -130
38 -169 32z m126 -57 c66 -34 115 -95 76 -95 -8 0 -52 14 -98 31 -45 17 -89
32 -95 35 -7 2 -13 12 -13 23 0 11 6 22 13 25 18 8 85 -3 117 -19z"/>
<path d="M1175 6980 c-147 -28 -244 -58 -269 -83 -47 -46 -15 -125 97 -240 15
-16 27 -32 27 -36 0 -4 -19 -23 -42 -41 -75 -60 -169 -153 -211 -210 -22 -30
-43 -57 -47 -60 -8 -7 -59 -115 -80 -171 -10 -26 -25 -89 -34 -140 -10 -52
-22 -113 -27 -137 -5 -23 -9 -66 -9 -96 0 -73 -14 -108 -77 -196 -123 -172
-152 -201 -294 -300 -110 -76 -121 -98 -90 -178 33 -84 90 -200 126 -258 43
-68 47 -84 30 -118 -18 -34 -12 -48 7 -17 7 12 18 21 24 21 12 0 99 -127 109
-161 18 -56 86 -156 153 -224 17 -18 32 -38 32 -44 0 -6 4 -11 10 -11 5 0 36
-36 69 -79 33 -43 66 -85 74 -93 8 -7 19 -23 26 -36 6 -12 17 -22 24 -22 7 0
18 -9 24 -19 7 -11 39 -38 72 -60 32 -22 67 -48 77 -58 10 -10 21 -18 24 -18
11 0 75 -75 75 -88 0 -23 30 -17 42 9 10 21 9 31 -9 62 -11 20 -39 71 -61 112
-22 41 -44 77 -48 80 -4 3 -9 16 -11 30 -2 14 -9 24 -15 23 -7 -2 -10 6 -8 19
6 28 -5 44 -17 27 -7 -10 -8 -8 -3 7 7 26 -3 54 -20 54 -8 0 -10 9 -7 28 5 24
4 26 -11 13 -15 -12 -17 -11 -17 8 0 11 5 21 12 21 9 0 9 3 0 12 -7 7 -12 20
-12 30 0 12 -5 16 -17 11 -14 -5 -16 -4 -7 8 12 16 4 60 -11 60 -5 0 -8 15 -7
33 2 19 -1 37 -7 41 -6 3 -11 17 -11 30 0 13 -7 30 -15 39 -8 8 -16 30 -16 48
-2 30 -2 31 -6 5 -8 -53 -23 -15 -16 43 4 39 2 60 -5 60 -5 0 -8 -8 -5 -19 3
-10 0 -21 -5 -25 -11 -7 -9 237 2 272 8 24 167 123 246 153 117 44 163 52 295
53 122 1 136 -1 231 -33 97 -32 103 -35 122 -75 48 -96 80 -175 87 -214 9 -54
24 -53 74 1 37 40 55 52 144 92 66 30 87 35 87 22 0 -7 13 -20 28 -29 89 -53
271 -257 319 -358 30 -65 53 -124 53 -141 0 -9 7 -24 15 -33 8 -8 15 -20 15
-26 0 -15 40 -90 58 -108 6 -7 12 -17 12 -22 0 -18 -25 -66 -63 -121 l-38 -56
26 -39 c14 -20 28 -49 31 -63 2 -14 9 -40 14 -57 6 -17 10 -57 10 -90 0 -55 2
-60 28 -72 49 -21 115 -5 154 37 36 39 69 102 89 170 18 61 98 140 174 174 33
14 86 37 117 51 31 14 59 26 62 26 9 0 94 38 141 63 22 12 40 19 40 17 1 -5
52 16 151 62 34 15 67 28 73 28 11 0 66 -70 74 -93 5 -16 88 35 121 74 73 86
84 158 35 229 -49 73 -87 153 -123 262 -52 155 -53 169 -19 209 80 92 166 242
173 299 5 42 7 45 40 52 75 15 89 21 117 50 26 27 28 35 28 111 -1 60 -8 105
-28 168 -33 107 -46 120 -78 82 -23 -28 -85 -61 -103 -55 -4 1 -23 -9 -41 -23
-19 -14 -38 -25 -44 -25 -6 0 -11 -4 -11 -10 0 -5 -7 -10 -15 -10 -8 0 -15 -4
-15 -10 0 -5 -5 -10 -12 -10 -6 0 -26 -11 -44 -25 -18 -14 -36 -25 -39 -25 -4
0 -13 -7 -21 -15 -27 -27 -83 -28 -232 -5 -232 34 -319 41 -442 35 -124 -7
-334 -36 -440 -61 -36 -8 -85 -19 -110 -25 -74 -17 -124 -31 -145 -41 -26 -12
-55 -13 -79 -3 -15 7 -18 5 -13 -7 3 -10 0 -19 -9 -22 -23 -9 -24 -8 -40 27
-8 17 -18 39 -23 47 -11 19 -24 50 -46 114 -31 85 -179 367 -247 471 -119 179
-253 332 -422 480 l-79 70 7 157 c6 128 5 158 -6 157 -7 -1 -31 -5 -53 -9z
m-139 -662 c18 -6 38 -22 45 -34 6 -13 17 -22 22 -21 6 1 13 -7 15 -17 2 -10
13 -28 23 -39 10 -12 19 -29 19 -39 0 -10 3 -18 8 -18 4 0 16 -30 26 -67 11
-38 24 -71 29 -74 6 -4 1 -17 -12 -30 -23 -25 -28 -78 -9 -97 17 -17 5 -24
-42 -27 -36 -2 -72 -15 -42 -15 7 0 12 -8 12 -19 0 -26 -57 -34 -78 -11 -8 10
-23 15 -33 13 -11 -3 -19 0 -19 6 0 6 10 11 23 11 17 0 19 2 7 9 -8 6 -18 7
-22 5 -4 -3 -8 4 -8 16 0 12 -4 19 -9 16 -11 -7 -33 18 -24 27 3 4 -3 7 -14 7
-25 0 -29 9 -28 82 0 32 -4 58 -8 58 -5 0 -7 33 -6 74 1 40 -1 78 -5 85 -4 6
0 14 8 17 10 4 16 18 16 39 0 48 43 66 106 43z m-139 -50 c-3 -8 -6 -5 -6 6
-1 11 2 17 5 13 3 -3 4 -12 1 -19z m263 -438 c0 -5 -4 -10 -10 -10 -5 0 -10 5
-10 10 0 6 5 10 10 10 6 0 10 -4 10 -10z m0 -30 c0 -5 -4 -10 -10 -10 -5 0
-10 5 -10 10 0 6 5 10 10 10 6 0 10 -4 10 -10z m-963 -762 c-3 -8 -6 -5 -6 6
-1 11 2 17 5 13 3 -3 4 -12 1 -19z m58 -88 c3 -5 1 -10 -4 -10 -6 0 -11 5 -11
10 0 6 2 10 4 10 3 0 8 -4 11 -10z m36 -57 c8 -16 40 -65 71 -110 32 -46 54
-83 50 -83 -4 0 -20 21 -37 45 -16 25 -33 45 -37 45 -5 0 -8 6 -8 14 0 8 -3
16 -7 18 -9 3 -63 84 -63 93 0 15 18 2 31 -22z m3306 -75 c-3 -7 -5 -2 -5 12
0 14 2 19 5 13 2 -7 2 -19 0 -25z m-2860 -45 c-3 -10 -5 -4 -5 12 0 17 2 24 5
18 2 -7 2 -21 0 -30z m2886 -13 c3 -11 1 -20 -4 -20 -5 0 -9 9 -9 20 0 11 2
20 4 20 2 0 6 -9 9 -20z m21 -45 c3 -8 1 -15 -4 -15 -6 0 -10 7 -10 15 0 8 2
15 4 15 2 0 6 -7 10 -15z m-3184 -65 c30 -43 18 -37 -16 7 -15 20 -23 33 -16
29 6 -3 21 -20 32 -36z m3210 4 c0 -8 -4 -12 -10 -9 -5 3 -10 10 -10 16 0 5 5
9 10 9 6 0 10 -7 10 -16z m20 -39 c0 -8 -2 -15 -4 -15 -2 0 -6 7 -10 15 -3 8
-1 15 4 15 6 0 10 -7 10 -15z m-2883 -102 c-3 -10 -5 -2 -5 17 0 19 2 27 5 18
2 -10 2 -26 0 -35z m2953 -30 c0 -20 -3 -24 -11 -16 -7 7 -9 19 -6 27 10 24
17 19 17 -11z m-67 10 c-13 -2 -33 -2 -45 0 -13 2 -3 4 22 4 25 0 35 -2 23 -4z
m-2866 -35 c-3 -7 -5 -2 -5 12 0 14 2 19 5 13 2 -7 2 -19 0 -25z"/>
<path d="M3445 6898 c-59 -33 -95 -112 -79 -170 9 -32 12 -33 64 -36 l55 -3
33 48 c40 61 43 107 7 146 -28 29 -48 33 -80 15z"/>
<path d="M2050 6864 c-25 -7 -56 -13 -70 -13 -50 -2 -145 -37 -148 -54 -3 -13
4 -17 30 -17 60 0 127 -79 139 -164 9 -64 23 -124 37 -156 5 -14 16 -45 23
-70 7 -25 16 -49 21 -54 4 -6 8 -22 8 -38 0 -15 7 -44 16 -65 64 -148 101
-191 204 -240 47 -22 68 -26 145 -26 82 0 99 4 195 42 58 23 115 49 127 57 12
8 28 14 35 14 7 0 36 11 63 25 28 13 61 25 75 25 15 0 31 5 37 11 15 15 131
15 145 1 7 -7 20 -12 30 -12 11 0 30 -12 43 -26 55 -59 50 16 -7 96 -54 77
-120 150 -134 150 -8 0 -14 -9 -14 -20 0 -11 5 -20 10 -20 14 0 12 -43 -2 -61
-19 -23 -54 -42 -153 -84 -49 -21 -97 -44 -106 -51 -8 -8 -22 -14 -30 -14 -8
0 -19 -4 -24 -9 -6 -5 -41 -19 -80 -32 -55 -19 -91 -24 -170 -24 -94 0 -103 2
-160 33 -33 18 -69 41 -80 50 -40 33 -103 122 -135 189 -42 90 -48 104 -53
133 -3 14 -14 57 -23 95 -10 39 -18 103 -18 143 l1 73 53 48 c37 34 51 53 47
65 -7 18 -15 18 -77 0z"/>
<path d="M2020 6010 c0 -16 33 -80 42 -80 14 0 9 21 -13 56 -21 35 -29 41 -29
24z"/>
<path d="M2081 5894 c0 -11 3 -14 6 -6 3 7 2 16 -1 19 -3 4 -6 -2 -5 -13z"/>
<path d="M2130 5520 c-12 -8 -10 -10 8 -10 13 0 20 4 17 10 -7 12 -6 12 -25 0z"/>
<path d="M1843 3785 c0 -22 2 -30 4 -17 2 12 2 30 0 40 -3 9 -5 -1 -4 -23z"/>
<path d="M16 3738 c-5 -21 -5 -57 -2 -80 4 -24 11 -97 16 -163 12 -153 38
-303 57 -327 6 -7 13 -26 16 -43 10 -57 25 -104 47 -152 12 -26 26 -57 30 -68
5 -11 16 -39 26 -62 10 -24 21 -43 26 -43 4 0 8 -8 8 -17 0 -10 9 -29 20 -43
11 -14 20 -29 20 -33 0 -5 11 -23 25 -41 14 -18 25 -36 25 -40 0 -4 11 -19 25
-34 14 -15 25 -31 25 -36 0 -5 8 -16 18 -25 10 -9 31 -34 47 -56 16 -22 40
-50 52 -62 13 -12 23 -31 23 -42 0 -66 46 -287 62 -297 4 -3 8 -18 8 -35 0
-16 5 -29 10 -29 6 0 10 -11 10 -25 0 -14 5 -25 10 -25 6 0 10 -9 10 -19 0
-11 23 -64 52 -118 28 -54 60 -116 72 -138 12 -22 31 -54 44 -72 12 -17 22
-36 22 -42 0 -6 5 -11 10 -11 6 0 10 -5 10 -12 0 -6 11 -26 25 -44 14 -18 25
-37 25 -43 0 -6 3 -11 8 -11 4 -1 27 -30 52 -66 25 -36 59 -82 75 -103 17 -20
44 -55 60 -76 41 -52 171 -202 212 -243 18 -18 33 -37 33 -42 0 -5 5 -12 10
-15 6 -3 10 1 10 9 0 8 -35 54 -78 103 -200 228 -414 540 -550 803 -100 191
-140 295 -163 411 -20 106 0 121 69 51 19 -18 68 -60 111 -93 42 -33 83 -66
91 -72 8 -7 77 -53 154 -102 76 -49 141 -96 143 -105 3 -8 12 -31 21 -50 9
-19 16 -43 17 -53 1 -11 7 -22 13 -26 6 -4 23 -32 36 -64 14 -31 35 -62 46
-69 11 -7 20 -18 20 -25 0 -7 11 -23 25 -37 14 -14 25 -28 25 -32 0 -4 14 -20
30 -36 17 -15 30 -32 30 -36 0 -9 66 -52 79 -52 5 0 12 -8 15 -18 7 -22 57
-52 85 -52 12 0 21 -4 21 -10 0 -5 7 -10 16 -10 8 0 13 -4 9 -9 -7 -13 47 -36
110 -47 80 -15 80 -14 94 84 30 223 46 322 51 322 8 0 36 -79 49 -140 13 -58
57 -211 71 -245 4 -11 14 -36 20 -55 16 -42 21 -54 104 -250 36 -85 66 -145
66 -133 0 12 -4 25 -10 28 -5 3 -10 19 -10 35 0 16 -4 31 -9 34 -5 3 -12 18
-15 33 -8 35 -35 106 -90 243 -14 36 -26 75 -26 87 0 12 -4 24 -9 27 -4 3 -11
20 -14 38 -4 18 -16 65 -26 103 -11 39 -21 84 -21 102 0 17 -5 44 -10 59 -9
23 -8 31 7 44 16 15 30 16 108 9 61 -6 144 -3 260 7 188 16 284 33 393 70 40
13 76 24 80 24 8 0 13 -17 51 -170 26 -102 30 -114 37 -107 3 3 -9 61 -27 129
-43 167 -51 224 -51 358 0 131 7 191 29 238 8 19 12 36 10 39 -10 9 -27 -8
-27 -26 0 -9 -4 -21 -9 -26 -5 -6 -11 -21 -13 -35 -2 -15 -10 -25 -20 -25 -20
0 -58 -34 -58 -52 0 -7 -4 -13 -8 -13 -17 0 -56 -92 -55 -128 1 -68 15 -122
34 -133 11 -5 19 -14 19 -20 0 -24 -137 -64 -315 -89 -79 -12 -436 -9 -535 5
-85 11 -215 38 -225 47 -5 4 -20 8 -34 8 -13 0 -38 4 -55 9 -303 91 -506 189
-716 345 -130 96 -267 223 -351 326 -19 23 -42 52 -52 63 -29 34 -127 185
-127 196 0 5 -3 11 -8 13 -15 6 -134 274 -153 343 -59 217 -83 357 -98 570 -6
85 -8 94 -15 63z"/>
<path d="M2517 3723 c-4 -3 -7 -13 -7 -22 1 -13 3 -13 11 2 11 19 8 33 -4 20z"/>
<path d="M2495 3623 c-9 -48 -64 -168 -103 -225 -78 -114 -235 -227 -334 -242
-49 -7 -69 4 -48 29 7 9 8 15 0 20 -5 3 -10 15 -10 25 0 11 -10 35 -22 53 -13
19 -31 49 -40 66 -31 57 -38 38 -38 -111 0 -79 -5 -161 -11 -183 -6 -22 -13
-51 -16 -65 -4 -13 -11 -30 -17 -37 -6 -7 -29 -37 -51 -67 -22 -30 -51 -61
-65 -69 -14 -9 -34 -24 -45 -35 -12 -10 -51 -31 -87 -46 -80 -32 -153 -34
-206 -7 -44 22 -152 133 -152 155 0 9 -4 16 -8 16 -11 0 -41 62 -82 162 -26
65 -50 157 -76 287 -3 13 -7 21 -10 18 -6 -6 21 -184 37 -242 18 -64 61 -177
81 -213 10 -18 18 -42 18 -53 0 -11 5 -29 10 -39 8 -15 6 -21 -9 -29 -16 -9
-19 -22 -20 -73 -1 -86 17 -169 43 -195 41 -41 47 -51 33 -56 -9 -4 -9 -6 1
-6 7 -1 25 -12 40 -26 15 -14 32 -25 38 -25 7 0 14 -7 18 -15 3 -8 14 -15 25
-15 11 0 23 -4 26 -10 3 -5 17 -10 31 -10 14 0 23 -4 20 -8 -6 -11 7 -12 114
-12 46 1 87 5 90 10 3 5 22 10 43 12 20 1 37 6 37 10 0 4 6 8 13 8 19 0 47 35
47 59 0 5 9 13 20 16 11 3 20 12 20 18 0 21 74 167 85 167 6 0 27 9 48 20 20
11 50 20 66 20 17 0 32 4 35 9 4 5 25 12 49 16 23 4 53 16 66 26 13 11 31 19
41 19 30 0 133 106 155 160 4 8 14 28 22 44 25 46 22 208 -5 268 -11 25 -18
49 -15 52 3 3 1 11 -5 19 -8 10 -2 31 27 87 21 41 40 84 44 95 3 11 13 40 23
65 21 56 34 120 24 120 -4 0 -11 -17 -15 -37z"/>
<path d="M3811 3443 c0 -23 4 -45 9 -48 11 -7 11 16 0 60 -7 28 -8 28 -9 -12z"/>
<path d="M3831 3130 c1 -137 4 -185 10 -160 13 50 13 314 0 336 -8 14 -10 -32
-10 -176z"/>
<path d="M3818 2880 c-4 -14 -8 -38 -7 -55 0 -30 0 -30 10 -5 6 13 9 38 7 55
-3 29 -3 30 -10 5z"/>
<path d="M3784 2713 c-4 -21 -12 -45 -18 -53 -10 -13 -9 -13 7 -1 9 7 17 24
17 37 0 12 5 26 10 29 13 8 13 25 0 25 -5 0 -12 -17 -16 -37z"/>
<path d="M3045 2690 c-3 -5 -1 -10 4 -10 6 0 11 5 11 10 0 6 -2 10 -4 10 -3 0
-8 -4 -11 -10z"/>
<path d="M2960 2569 c0 -5 5 -7 10 -4 6 3 10 8 10 11 0 2 -4 4 -10 4 -5 0 -10
-5 -10 -11z"/>
<path d="M2936 2541 c-4 -7 -5 -15 -2 -18 9 -9 19 4 14 18 -4 11 -6 11 -12 0z"/>
<path d="M2915 2499 c-4 -6 -5 -12 -2 -15 2 -3 7 2 10 11 7 17 1 20 -8 4z"/>
<path d="M2871 2418 c-11 -24 -18 -45 -16 -46 7 -8 25 10 25 24 0 8 7 26 16
39 10 15 12 25 5 25 -6 0 -19 -19 -30 -42z"/>
<path d="M2840 2339 c0 -11 5 -17 10 -14 6 3 10 13 10 21 0 8 -4 14 -10 14 -5
0 -10 -9 -10 -21z"/>
<path d="M2870 1518 c0 -2 16 -52 36 -113 19 -60 37 -121 40 -135 3 -13 8 -27
12 -30 9 -6 32 -72 32 -89 0 -7 7 -19 15 -27 8 -9 15 -24 15 -35 0 -10 5 -19
10 -19 12 0 13 24 1 48 -4 9 -16 35 -26 57 -9 22 -21 48 -26 57 -5 10 -9 25
-9 33 0 8 -4 23 -9 33 -5 9 -15 37 -21 62 -7 25 -16 54 -20 65 -5 11 -14 37
-20 58 -6 20 -16 37 -21 37 -5 0 -9 -1 -9 -2z"/>
<path d="M3040 1041 c0 -11 5 -23 10 -26 6 -3 10 -17 10 -31 0 -15 6 -24 15
-24 19 0 19 19 0 44 -8 11 -15 28 -15 38 0 10 -4 18 -10 18 -5 0 -10 -9 -10
-19z"/>
<path d="M3095 936 c-5 -11 -4 -26 3 -37 7 -10 12 -26 12 -35 0 -8 6 -14 13
-11 13 4 11 38 -3 47 -4 3 -10 16 -12 30 -4 22 -5 23 -13 6z"/>
<path d="M3130 825 c0 -14 5 -25 10 -25 6 0 10 -8 10 -19 0 -10 7 -24 15 -31
8 -7 15 -19 15 -26 0 -8 5 -14 10 -14 6 0 10 -11 10 -25 0 -14 4 -25 9 -25 5
0 11 -8 14 -17 8 -25 50 -97 61 -105 5 -3 10 -12 12 -20 5 -35 149 -233 239
-327 184 -195 310 -226 510 -125 62 32 118 64 125 73 3 3 27 24 55 46 59 47
118 107 154 155 14 19 29 37 32 40 12 10 79 121 79 130 0 6 4 10 9 10 5 0 11
14 13 31 l5 31 -18 -23 c-10 -13 -19 -28 -19 -32 0 -4 -26 -43 -57 -85 -70
-95 -237 -262 -285 -286 -7 -3 -35 -20 -63 -36 -27 -17 -57 -33 -65 -36 -8 -3
-24 -10 -35 -16 -28 -16 -58 -19 -148 -19 -70 0 -82 4 -125 32 -66 45 -262
249 -262 274 0 3 -11 18 -24 32 -13 14 -30 37 -38 52 -7 14 -15 28 -18 31 -8
8 -28 41 -46 77 -9 18 -27 44 -40 58 -13 14 -24 32 -24 40 0 8 -4 17 -10 20
-5 3 -10 15 -10 26 0 10 -3 19 -8 19 -4 0 -12 9 -17 19 -24 45 -43 87 -49 104
-8 26 -26 21 -26 -8z"/>
<path d="M2221 694 c0 -11 3 -14 6 -6 3 7 2 16 -1 19 -3 4 -6 -2 -5 -13z"/>
<path d="M2193 456 c-53 -75 -120 -103 -328 -138 -53 -9 -166 -13 -335 -12
-240 0 -258 2 -312 23 -37 14 -68 35 -88 59 -22 26 -30 32 -30 19 0 -39 103
-109 181 -122 56 -10 504 -10 584 -1 181 21 285 69 341 158 36 56 25 68 -13
14z"/>
</g>
</svg>
